<svg role="img" viewBox="0 0 24 24" xmlns="http://www.w3.org/2000/svg"><title>Enonic</title><path fill="#000000" d="M12 0C5.373 0 0 5.373 0 12s5.373 12 12 12 12-5.373 12-12S18.627 0 12 0zm.5 18.5c-3.59 0-6.5-2.91-6.5-6.5 0-3.59 2.91-6.5 6.5-6.5 2.13 0 4.02 1.03 5.2 2.62l-2.08 1.2c-.75-1.01-1.93-1.67-3.27-1.67-2.25 0-4.08 1.76-4.08 3.93v.82h7.95c.05-.27.08-.54.08-.82 0-.47-.06-.93-.18-1.36l2.15-1.24c.32.81.5 1.69.5 2.6.15 3.92-2.62 6.82-6.27 6.82zm3.43-7.93H8.58c.3-1.43 1.55-2.5 3.07-2.5 1.29 0 2.4.76 2.93 1.85l1.35.65z"/></svg>
