<?xml version="1.0" encoding="UTF-8"?>
<svg id="Layer_2" data-name="Layer 2" xmlns="http://www.w3.org/2000/svg" viewBox="0 0 1040.96 900">
  <defs>
    <style>
      .cls-1 {
        stroke-linecap: round;
        stroke-width: 15px;
      }

      .cls-1, .cls-2 {
        stroke: #000;
      }

      .cls-1, .cls-2, .cls-3, .cls-4 {
        fill: none;
        stroke-miterlimit: 10;
      }

      .cls-5 {
        fill: #fff;
      }

      .cls-6 {
        fill: #306995;
      }

      .cls-7 {
        fill: #231f20;
      }

      .cls-2 {
        stroke-width: 45.03px;
      }

      .cls-3 {
        stroke: #fff;
        stroke-width: 12.95px;
      }

      .cls-4 {
        stroke: #306995;
        stroke-width: 22.51px;
      }
    </style>
  </defs>
  <g id="Logo_1_Simple_Rest_" data-name="Logo 1 (Simple Rest)">
    
    <g id="Lines">
      <line class="cls-1" x1="819.32" y1="844.63" x2="221.63" y2="844.63"/>
      <line class="cls-1" x1="819.32" y1="694.95" x2="221.63" y2="694.95"/>
      <line class="cls-1" x1="819.32" y1="545.28" x2="221.63" y2="545.28"/>
      <line class="cls-1" x1="819.32" y1="395.6" x2="221.63" y2="395.6"/>
      <line class="cls-1" x1="819.32" y1="243.93" x2="221.63" y2="243.93"/>
    </g>
    <g>
      <g id="quarter_rest" data-name="quarter rest">
        <path class="cls-5" d="M516.42,809.85c-13.94-10.46-44.89-38.12-73.01-71.46-36.37-43.13-56.34-81.27-59.34-113.36-2.1-22.44,3.98-41.64,18.06-57.07,25.98-28.94,54.51-43.01,87.22-43.01,2.15,0,4.32,.06,6.49,.18l-128.01-132.24,9.47-11.63c98.89-121.49,106.75-147.97,106.75-169.97,0-49.84-31.46-88.33-54.43-116.43-3.87-4.73-7.52-9.2-10.79-13.44l-.36-.46-.32-.49c-1.67-2.5-4.08-5.24-6.41-7.89-6.42-7.3-13.7-15.58-12.89-27.04,.32-4.52,2.12-11.13,8.88-16.92l.56-.48,.6-.43c4.83-3.45,9.98-5.2,15.3-5.2,13.37,0,21.4,10.33,29.17,20.33,1.6,2.06,3.25,4.18,5.04,6.38,21.92,23.68,169.29,204.34,175.59,212.07l9.88,12.11-11.31,10.78c-.8,.77-81.04,78.4-81.04,156.28,0,91.87,108.42,178.64,109.51,179.51l13.46,10.65-32.06,39.22-12.42-7.15c-18.18-10.47-43.24-16.71-67.03-16.71-28.5,0-52.34,8.71-65.43,23.89-5.15,5.98-7.19,12.48-6.42,20.44,2.85,29.52,41.86,66.26,56.65,77.92l12.75,10.05-9.53,13.14-20.86,28.71-13.72-10.29Z"/>
        <path class="cls-2" d="M516.42,809.85c-13.94-10.46-44.89-38.12-73.01-71.46-36.37-43.13-56.34-81.27-59.34-113.36-2.1-22.44,3.98-41.64,18.06-57.07,25.98-28.94,54.51-43.01,87.22-43.01,2.15,0,4.32,.06,6.49,.18l-128.01-132.24,9.47-11.63c98.89-121.49,106.75-147.97,106.75-169.97,0-49.84-31.46-88.33-54.43-116.43-3.87-4.73-7.52-9.2-10.79-13.44l-.36-.46-.32-.49c-1.67-2.5-4.08-5.24-6.41-7.89-6.42-7.3-13.7-15.58-12.89-27.04,.32-4.52,2.12-11.13,8.88-16.92l.56-.48,.6-.43c4.83-3.45,9.98-5.2,15.3-5.2,13.37,0,21.4,10.33,29.17,20.33,1.6,2.06,3.25,4.18,5.04,6.38,21.92,23.68,169.29,204.34,175.59,212.07l9.88,12.11-11.31,10.78c-.8,.77-81.04,78.4-81.04,156.28,0,91.87,108.42,178.64,109.51,179.51l13.46,10.65-32.06,39.22-12.42-7.15c-18.18-10.47-43.24-16.71-67.03-16.71-28.5,0-52.34,8.71-65.43,23.89-5.15,5.98-7.19,12.48-6.42,20.44,2.85,29.52,41.86,66.26,56.65,77.92l12.75,10.05-9.53,13.14-20.86,28.71-13.72-10.29Z"/>
      </g>
      <g id="quarter_rest-2" data-name="quarter rest">
        <path class="cls-6" d="M523.17,800.85c-13.53-10.15-43.65-37.09-71.16-69.71-23.97-28.42-53.27-70.08-56.73-107.15-1.79-19.17,3.33-35.48,15.22-48.49,23.7-26.42,49.5-39.29,78.85-39.29,12.76,0,25.97,2.4,39.94,7.29l-146.42-151.25,3.16-3.88c92.92-114.16,109.27-148.06,109.27-177.08,0-53.85-32.93-94.14-56.97-123.56-3.82-4.67-7.42-9.08-10.6-13.2l-.12-.15-.11-.16c-2.08-3.12-4.75-6.15-7.32-9.08-5.45-6.2-10.59-12.05-10.12-18.82,.24-3.46,1.92-6.54,4.98-9.16l.19-.16,.2-.14c2.88-2.06,5.82-3.1,8.76-3.1,7.86,0,13.34,7.05,20.28,15.98,1.71,2.19,3.47,4.46,5.43,6.86,20.63,22.1,169.04,204.04,175.37,211.79l3.29,4.04-3.77,3.6c-.85,.81-84.53,81.61-84.53,164.43,0,27.87,9.81,73.15,56.55,130.56,28.26,34.71,56.95,57.56,57.24,57.79l4.48,3.55-18.77,22.96-4.14-2.38c-20.11-11.58-46.59-18.21-72.65-18.21-32.24,0-58.51,9.87-73.96,27.79-7.2,8.36-10.18,17.82-9.1,28.91,1.61,16.51,12.56,36.5,31.67,57.8,14.73,16.41,29.07,27.74,29.22,27.85l4.26,3.35-17.33,23.85-4.57-3.43Z"/>
        <path class="cls-4" d="M523.17,800.85c-13.53-10.15-43.65-37.09-71.16-69.71-23.97-28.42-53.27-70.08-56.73-107.15-1.79-19.17,3.33-35.48,15.22-48.49,23.7-26.42,49.5-39.29,78.85-39.29,12.76,0,25.97,2.4,39.94,7.29l-146.42-151.25,3.16-3.88c92.92-114.16,109.27-148.06,109.27-177.08,0-53.85-32.93-94.14-56.97-123.56-3.82-4.67-7.42-9.08-10.6-13.2l-.12-.15-.11-.16c-2.08-3.12-4.75-6.15-7.32-9.08-5.45-6.2-10.59-12.05-10.12-18.82,.24-3.46,1.92-6.54,4.98-9.16l.19-.16,.2-.14c2.88-2.06,5.82-3.1,8.76-3.1,7.86,0,13.34,7.05,20.28,15.98,1.71,2.19,3.47,4.46,5.43,6.86,20.63,22.1,169.04,204.04,175.37,211.79l3.29,4.04-3.77,3.6c-.85,.81-84.53,81.61-84.53,164.43,0,27.87,9.81,73.15,56.55,130.56,28.26,34.71,56.95,57.56,57.24,57.79l4.48,3.55-18.77,22.96-4.14-2.38c-20.11-11.58-46.59-18.21-72.65-18.21-32.24,0-58.51,9.87-73.96,27.79-7.2,8.36-10.18,17.82-9.1,28.91,1.61,16.51,12.56,36.5,31.67,57.8,14.73,16.41,29.07,27.74,29.22,27.85l4.26,3.35-17.33,23.85-4.57-3.43Z"/>
      </g>
      <g id="quarter_rest-3" data-name="quarter rest">
        <path class="cls-3" d="M519.8,805.35c-13.74-10.3-44.27-37.6-72.08-70.58-35.62-42.24-55.14-79.33-58.04-110.25-1.94-20.8,3.65-38.55,16.63-52.77,24.85-27.69,52.02-41.16,83.04-41.16,7.08,0,14.27,.7,21.64,2.11l-135.64-140.12,6.31-7.75c91.85-112.84,108.01-145.86,108.01-173.52,0-51.84-32.19-91.23-55.7-119.99-3.84-4.7-7.47-9.14-10.7-13.32l-.24-.31-.22-.32c-1.87-2.81-4.41-5.69-6.87-8.49-5.97-6.79-12.15-13.81-11.5-22.93,.24-3.45,1.64-8.51,6.93-13.04l.38-.32,.4-.29c3.85-2.75,7.9-4.15,12.03-4.15,10.61,0,17.15,8.41,24.73,18.16,1.65,2.12,3.36,4.32,5.23,6.62,21.28,22.9,169.17,204.2,175.48,211.94l6.59,8.07-7.54,7.19c-.82,.79-82.78,80-82.78,160.36,0,94.56,110.53,183.04,111.65,183.92l8.98,7.1-25.42,31.09-8.28-4.77c-19.28-11.1-44.74-17.46-69.84-17.46-30.14,0-55.54,9.42-69.69,25.84-6.14,7.13-8.68,15.2-7.76,24.67,3.05,31.53,43.46,69.73,58.77,81.79l8.51,6.7-6.36,8.77-17.5,24.09-9.14-6.86Z"/>
      </g>
    </g>
  </g>
</svg>