<svg xmlns="http://www.w3.org/2000/svg" viewBox="0 0 100 100" width="100" height="100">
  <defs>
    <linearGradient id="grad" x1="0%" y1="0%" x2="100%" y2="100%">
      <stop offset="0%" style="stop-color:#2e8b57;stop-opacity:1" />
      <stop offset="100%" style="stop-color:#1a365d;stop-opacity:1" />
    </linearGradient>
  </defs>
  <!-- Background circle -->
  <circle cx="50" cy="50" r="45" fill="url(#grad)"/>
  <!-- Kubernetes-inspired wheel -->
  <g fill="none" stroke="white" stroke-width="3">
    <!-- Inner circle -->
    <circle cx="50" cy="50" r="12"/>
    <!-- Spokes -->
    <line x1="50" y1="38" x2="50" y2="22"/>
    <line x1="50" y1="62" x2="50" y2="78"/>
    <line x1="38" y1="50" x2="22" y2="50"/>
    <line x1="62" y1="50" x2="78" y2="50"/>
    <line x1="41" y1="41" x2="30" y2="30"/>
    <line x1="59" y1="59" x2="70" y2="70"/>
    <line x1="41" y1="59" x2="30" y2="70"/>
    <line x1="59" y1="41" x2="70" y2="30"/>
    <!-- Outer nodes -->
    <circle cx="50" cy="20" r="4" fill="white"/>
    <circle cx="50" cy="80" r="4" fill="white"/>
    <circle cx="20" cy="50" r="4" fill="white"/>
    <circle cx="80" cy="50" r="4" fill="white"/>
    <circle cx="29" cy="29" r="4" fill="white"/>
    <circle cx="71" cy="71" r="4" fill="white"/>
    <circle cx="29" cy="71" r="4" fill="white"/>
    <circle cx="71" cy="29" r="4" fill="white"/>
  </g>
</svg>
