<svg xmlns="http://www.w3.org/2000/svg" fill="none" viewBox="0 0 24 24" stroke-width="1.5" stroke="#3a8f5e">
  <!-- Data Science Stack: Beaker/flask with data flow -->
  <!-- Beaker shape -->
  <path stroke-linecap="round" stroke-linejoin="round" d="M9.75 3.104v5.714a2.25 2.25 0 0 1-.659 1.591L5 14.5M9.75 3.104c-.251.023-.501.05-.75.082m.75-.082a24.301 24.301 0 0 1 4.5 0m0 0v5.714c0 .597.237 1.17.659 1.591L19 14.5M14.25 3.104c.251.023.501.05.75.082M19 14.5l-.254 3.559a2.25 2.25 0 0 1-2.244 2.066H7.498a2.25 2.25 0 0 1-2.244-2.066L5 14.5m14 0H5" />
  <!-- Data dots inside beaker -->
  <circle cx="9" cy="16" r="1" fill="#3a8f5e" />
  <circle cx="12" cy="17" r="1" fill="#3a8f5e" />
  <circle cx="15" cy="16" r="1" fill="#3a8f5e" />
  <!-- Spark/processing indicator at top -->
  <path stroke-linecap="round" stroke-linejoin="round" d="M12 1v1.5" />
</svg>
