<svg xmlns="http://www.w3.org/2000/svg" fill="none" viewBox="0 0 24 24" stroke-width="1.5" stroke="#3a8f5e">
  <!-- Observability Stack: metrics, logs, traces visualization -->
  <path stroke-linecap="round" stroke-linejoin="round" d="M3.75 3v11.25A2.25 2.25 0 0 0 6 16.5h2.25M3.75 3h-1.5m1.5 0h16.5m0 0h1.5m-1.5 0v11.25A2.25 2.25 0 0 1 18 16.5h-2.25m-7.5 0h7.5m-7.5 0-1 3m8.5-3 1 3m0 0 .5 1.5m-.5-1.5h-9.5m0 0-.5 1.5" />
  <!-- Chart lines representing metrics -->
  <path stroke-linecap="round" stroke-linejoin="round" d="M7 13l2-4 2 2 2-3 2 1 2-2" />
  <!-- Eye icon overlay for "observability" -->
  <circle cx="12" cy="9" r="1.5" fill="#3a8f5e" />
</svg>
