<svg viewBox="0 10 44 57" fill="none" xmlns="http://www.w3.org/2000/svg">
<defs>
  <linearGradient id="gravitee-gradient" x1="21" y1="11" x2="21" y2="66" gradientUnits="userSpaceOnUse">
    <stop offset="0%" stop-color="#FF6B35"/>
    <stop offset="100%" stop-color="#E8350E"/>
  </linearGradient>
</defs>
<path d="M42.1191 11.0029H11.2198C10.0424 11.0029 8.87656 11.233 7.78876 11.6801C6.70097 12.1272 5.71257 12.7826 4.88 13.6088C4.04743 14.435 3.38699 15.4159 2.93641 16.4954C2.48582 17.575 2.2539 18.732 2.2539 19.9005V33.3028C2.25264 35.4366 3.02788 37.499 4.43698 39.1106C3.20947 40.4465 2.45519 42.1437 2.28888 43.9441C2.12257 45.7445 2.55334 47.5495 3.51565 49.0846C2.42246 49.9129 1.53654 50.9803 0.926781 52.2038C0.317026 53.4273 -0.00012385 54.7739 3.62807e-08 56.1388V57.1015C3.62807e-08 59.4613 0.944567 61.7244 2.62591 63.393C4.30725 65.0616 6.58763 65.9991 8.9654 65.9991H33.5622C35.9401 65.9991 38.2205 65.0617 39.9019 63.3931C41.5834 61.7244 42.528 59.4613 42.5282 57.1015V56.1388C42.5282 53.7789 41.5836 51.5156 39.9021 49.8469C38.2207 48.1782 35.9402 47.2407 33.5622 47.2407H10.659V47.2381C9.98926 47.2274 9.35066 46.9556 8.88125 46.4813C8.41185 46.0071 8.14937 45.3686 8.15055 44.7038C8.15173 44.0391 8.41648 43.4015 8.88756 42.9289C9.35865 42.4563 9.99821 42.1867 10.668 42.1784H10.7547C10.9096 42.1863 31.3083 42.202 31.3083 42.202C32.4859 42.202 33.6518 41.9718 34.7397 41.5246C35.8276 41.0773 36.816 40.4218 37.6486 39.5954C38.4812 38.769 39.1416 37.788 39.5921 36.7083C40.0426 35.6286 40.2744 34.4714 40.2743 33.3028L40.3123 18.0681C40.3129 17.75 40.4405 17.4451 40.6672 17.2202C40.8939 16.9953 41.2012 16.8688 41.5217 16.8684H42.1191C42.5111 16.8684 42.8872 16.714 43.1647 16.4391C43.4422 16.1642 43.5984 15.7913 43.5991 15.4022V12.4692C43.5984 12.0801 43.4422 11.7071 43.1647 11.4322C42.8872 11.1573 42.5111 11.0029 42.1191 11.0029ZM36.6381 56.1388V57.1015C36.6371 57.9107 36.3127 58.6865 35.7361 59.2587C35.1595 59.8309 34.3777 60.1527 33.5622 60.1535H8.9654C8.15007 60.1526 7.36842 59.8307 6.7919 59.2585C6.21537 58.6864 5.89105 57.9106 5.89007 57.1015V56.1388C5.89091 55.3296 6.21517 54.5537 6.79171 53.9814C7.36825 53.4091 8.14998 53.0872 8.9654 53.0862H33.5622C34.3778 53.0871 35.1596 53.4089 35.7363 53.9812C36.3129 54.5535 36.6373 55.3295 36.6381 56.1388ZM34.3842 33.3028C34.3827 34.1118 34.058 34.8871 33.4815 35.4589C32.9049 36.0307 32.1234 36.3524 31.3083 36.3533H11.222C10.4064 36.3525 9.62457 36.0306 9.04792 35.4583C8.47126 34.886 8.14693 34.1101 8.14609 33.3007V19.9005C8.14707 19.0913 8.47146 18.3155 9.0481 17.7433C9.62474 17.1711 10.4065 16.8493 11.222 16.8485H31.3083C32.1237 16.8494 32.9054 17.1713 33.482 17.7434C34.0586 18.3156 34.3831 19.0913 34.3842 19.9005V33.3028Z" fill="url(#gravitee-gradient)"/>
</svg>
